<svg width="48" height="48" viewBox="0 0 48 48" fill="none" xmlns="http://www.w3.org/2000/svg">
<circle cx="24" cy="24" r="24" fill="#FF5555"/>
<path d="M24 14L22.6985 19.206C22.4445 20.2218 22.3176 20.7298 22.0531 21.1431C21.8192 21.5087 21.5087 21.8192 21.1431 22.0531C20.7298 22.3176 20.2218 22.4445 19.206 22.6985L14 24L19.206 25.3015C20.2218 25.5555 20.7298 25.6824 21.1431 25.9469C21.5087 26.1808 21.8192 26.4913 22.0531 26.8569C22.3176 27.2702 22.4445 27.7782 22.6985 28.794L24 34L25.3015 28.794C25.5555 27.7782 25.6824 27.2702 25.9469 26.8569C26.1808 26.4913 26.4913 26.1808 26.8569 25.9469C27.2702 25.6824 27.7782 25.5555 28.794 25.3015L34 24L28.794 22.6985C27.7782 22.4445 27.2702 22.3176 26.8569 22.0531C26.4913 21.8192 26.1808 21.5087 25.9469 21.1431C25.6824 20.7298 25.5555 20.2218 25.3015 19.206L24 14Z" stroke="white" stroke-width="2" stroke-linecap="round" stroke-linejoin="round"/>
</svg>
