<svg width="46" height="16" viewBox="0 0 46 16" fill="none" xmlns="http://www.w3.org/2000/svg">
<path d="M17.4708 1.19145L11.7423 15.2944H7.95969L5.05163 4.03978C4.87503 3.34657 4.72318 3.09261 4.19496 2.80056C3.33279 2.32462 1.91031 1.87855 0.659329 1.60154L0.742203 1.19168L6.83097 1.19168C7.60708 1.19168 8.30735 1.71841 8.48802 2.62961L10.0347 10.7902L13.7118 1.19145L17.4708 1.19145ZM32.3381 10.6897C32.3352 6.9676 27.2706 6.76255 27.2973 5.09983C27.3057 4.59379 27.7757 4.05577 28.8094 3.91845C29.3218 3.85002 30.7342 3.79782 32.3402 4.54958L32.9541 1.55898C32.0915 1.24059 30.9823 0.93396 29.6039 0.93396C26.067 0.93396 23.5873 2.85088 23.5797 5.59575C23.5668 7.62602 25.3718 8.75895 26.7308 9.43359C28.1289 10.1245 28.599 10.5684 28.5968 11.1864C28.5915 12.1324 27.491 12.55 26.4608 12.5665C24.6624 12.5947 23.6162 12.0703 22.7823 11.676L22.1488 14.7656C22.9868 15.1566 24.5317 15.4978 26.1318 15.515C29.8911 15.5147 32.3409 13.6218 32.3381 10.6897ZM41.7003 15.2944H45.0098L42.0521 1.19145L38.9975 1.19145C38.3106 1.19145 37.7332 1.59919 37.4798 2.22609L32.1738 15.2944H35.9312L36.6671 13.1877L41.258 13.1877L41.7003 15.2944ZM37.6832 10.2973L39.5408 5.00224L40.6507 10.2973H37.6832ZM22.5837 1.19145L19.6937 15.2944H16.1155L19.0066 1.19145L22.5837 1.19145Z" fill="white"/>
</svg>
