<svg width="720" height="721" viewBox="0 0 720 721" fill="none" xmlns="http://www.w3.org/2000/svg">
<path d="M461.741 258.456C515.082 311.797 548.337 375.094 559.002 434.292C569.667 493.492 557.736 548.542 520.784 585.493C483.833 622.445 428.783 634.376 369.583 623.711C310.385 613.046 247.088 579.791 193.747 526.45C140.406 473.109 107.151 409.812 96.4861 350.614C85.8211 291.414 97.7523 236.364 134.704 199.413C171.655 162.461 226.705 150.53 285.905 161.195C345.103 171.86 408.4 205.115 461.741 258.456Z" stroke="white"/>
<path d="M493.741 226.456C547.082 279.797 580.337 343.094 591.002 402.292C601.667 461.492 589.736 516.542 552.784 553.493C515.833 590.445 460.783 602.376 401.583 591.711C342.385 581.046 279.088 547.791 225.747 494.45C172.406 441.109 139.151 377.812 128.486 318.614C117.821 259.414 129.752 204.364 166.704 167.413C203.655 130.461 258.705 118.53 317.905 129.195C377.103 139.86 440.4 173.115 493.741 226.456Z" stroke="white"/>
<path d="M525.741 194.456C579.082 247.797 612.337 311.094 623.002 370.292C633.667 429.492 621.736 484.542 584.784 521.493C547.833 558.445 492.783 570.376 433.583 559.711C374.385 549.046 311.088 515.791 257.747 462.45C204.406 409.109 171.151 345.812 160.486 286.614C149.821 227.414 161.752 172.364 198.704 135.413C235.655 98.4614 290.705 86.5302 349.905 97.1952C409.103 107.86 472.4 141.115 525.741 194.456Z" stroke="white"/>
</svg>
